PathFileType	4	(X/Y/Z)	s06c0203.trc
DataRate	CameraRate	NumFrames	NumMarkers	Units	OrigDataRate	OrigDataStartFrame	OrigNumFrames
200	200	4	48	mm	200	1250	2000
Frame#	Time	racr			lacr			c7			jug			rlel			rdr			llel			ldr			s2			lic			ric			lasi			rasi			rpsi			lpsi			rgt			lgt			rth1			rth2			rth3			rth4			rlfc			rmfc			rsh1			rsh2			rsh3			rsh4			rlmal			rcal			rtoe			rmt5			lth1			lth2			lth4			lth3			llfc			lmfc			llmal			lcal			lmt5			lsh1			lsh2			lsh3			lsh4			ltoe			SBIKE			LBIKE			RBIKE			
		X1	Y1	Z1	X2	Y2	Z2	X3	Y3	Z3	X4	Y4	Z4	X5	Y5	Z5	X6	Y6	Z6	X7	Y7	Z7	X8	Y8	Z8	X9	Y9	Z9	X10	Y10	Z10	X11	Y11	Z11	X12	Y12	Z12	X13	Y13	Z13	X14	Y14	Z14	X15	Y15	Z15	X16	Y16	Z16	X17	Y17	Z17	X18	Y18	Z18	X19	Y19	Z19	X20	Y20	Z20	X21	Y21	Z21	X22	Y22	Z22	X23	Y23	Z23	X24	Y24	Z24	X25	Y25	Z25	X26	Y26	Z26	X27	Y27	Z27	X28	Y28	Z28	X29	Y29	Z29	X30	Y30	Z30	X31	Y31	Z31	X32	Y32	Z32	X33	Y33	Z33	X34	Y34	Z34	X35	Y35	Z35	X36	Y36	Z36	X37	Y37	Z37	X38	Y38	Z38	X39	Y39	Z39	X40	Y40	Z40	X41	Y41	Z41	X42	Y42	Z42	X43	Y43	Z43	X44	Y44	Z44	X45	Y45	Z45	X46	Y46	Z46	X47	Y47	Z47	X48	Y48	Z48	
1250	6.2500	560.542952	1234.789203	-75.544995	596.886647	1200.068774	-388.436997	580.987371	1314.548369	-236.445472	544.044913	1156.769175	-228.768533	483.341235	1014.167983	70.232715	651.161080	917.452560	-59.177072	482.020606	985.579399	-530.932736	656.746905	921.548495	-412.007375	22.888629	1137.906441	-253.040803	179.854593	1092.356518	-406.579951	159.617969	1113.474892	-77.519671	192.085368	1045.679215	-361.792337	192.328577	1076.224585	-109.268059	52.533584	1173.206315	-220.303374	54.206021	1169.283945	-279.479580	121.389069	1025.674900	-45.733853	157.269602	1036.180756	-434.543713	195.375647	902.949246	-20.923980	252.990991	832.603053	-23.426788	267.729419	746.980477	-32.704004	285.282047	850.179847	-36.990330	296.041767	640.928007	-44.511666	289.980746	613.732496	-150.858093	269.606586	520.558981	-18.003867	274.784006	434.842565	-38.178421	239.051581	355.835251	-41.985151	297.104865	435.453378	-71.684384	216.186216	275.483461	-47.644282	152.432912	244.201621	-95.107707	429.000371	226.893776	-96.422268	332.721326	205.364209	-25.197415	223.584256	948.191578	-437.500554	304.488259	915.844557	-432.093573	325.571894	943.796967	-419.578789	359.807518	846.015923	-430.505428	404.645547	748.016005	-400.326345	401.276234	739.269406	-282.021508	86.158643	566.762263	-372.527184	11.893589	595.537529	-323.850303	124.127429	435.709949	-399.172705	321.331563	680.078839	-412.760337	258.010494	626.743883	-385.560691	171.921079	604.302158	-383.769048	272.794747	611.412895	-353.064214	192.253927	380.245885	-342.067286	-203.859836	864.384438	-211.988688	-50.914714	79.893295	-411.546795	-50.987095	79.701409	-14.646541	
1251	6.2550	561.132288	1234.846614	-79.912692	596.713840	1199.671808	-390.501693	581.956392	1314.802138	-239.108015	543.839691	1157.270834	-232.372402	485.461135	1015.451891	68.709344	653.736285	918.227973	-59.105113	482.201097	984.638024	-532.355057	656.608911	921.509447	-411.929823	23.229440	1137.709378	-248.635506	178.883268	1093.985967	-405.953348	163.085073	1113.607730	-76.199199	191.815344	1047.374403	-361.095737	194.704749	1075.757653	-108.319040	53.699535	1173.768150	-217.305911	54.564669	1170.110866	-276.525360	123.214455	1024.006584	-44.667530	156.241600	1039.781094	-433.264275	193.641622	898.940477	-20.066621	249.346026	826.859941	-23.015831	260.347057	740.649072	-33.202903	282.062839	843.124886	-37.006056	286.080272	634.227717	-44.420116	277.817079	606.761997	-151.299414	260.518007	514.671772	-17.598655	266.154310	428.842217	-37.881910	231.054818	349.647996	-41.417935	288.511889	429.736410	-71.296656	209.139567	268.907084	-47.152428	145.025732	238.172989	-94.224566	421.498774	218.329640	-96.761565	325.327980	197.915249	-25.094559	223.804661	952.419345	-437.318505	305.524337	922.162144	-432.344793	326.358789	951.056625	-420.939474	362.435520	853.308104	-430.245164	410.785482	757.142413	-399.470560	407.929032	749.183647	-281.058963	92.983872	574.712735	-372.352774	18.389035	602.813296	-323.665487	131.844879	443.818431	-399.103919	327.779038	689.421814	-412.245228	264.701392	635.619371	-385.446644	178.689330	612.816156	-383.659149	279.498950	620.165654	-353.094611	201.274961	389.534192	-342.161596	-203.851271	864.402419	-211.801050	-50.916367	79.943994	-411.516525	-50.987009	79.717029	-14.605849	
1252	6.2600	562.286857	1235.905871	-82.352831	596.475932	1199.294307	-392.573344	582.887574	1314.945418	-241.886195	544.046547	1157.642876	-234.263372	487.689906	1016.639958	67.044836	656.583487	919.042575	-59.064275	482.340641	983.959479	-533.947100	656.504471	921.591425	-411.751641	24.158299	1138.117456	-245.645334	177.968582	1095.485817	-405.170647	166.452553	1113.375845	-75.053729	191.575734	1048.906860	-360.476274	199.028176	1073.361352	-109.313760	54.925877	1174.635072	-214.925928	55.035120	1170.898549	-273.602149	125.135981	1022.345341	-43.576551	155.062753	1043.063028	-432.014870	192.034669	895.257968	-19.193731	245.323974	821.367672	-22.904002	252.865006	735.294239	-33.301676	278.323998	836.442994	-37.228507	276.501994	628.508171	-44.452123	265.653866	600.996954	-152.100663	252.084339	509.434418	-17.413676	257.795230	423.693841	-37.786850	222.872686	344.326829	-41.025114	279.981090	424.555946	-71.345603	201.914744	263.246190	-46.760189	137.395088	233.105074	-93.353177	413.681724	209.967583	-96.984503	317.596905	190.946258	-24.975365	223.835242	956.391306	-437.168861	306.352242	928.317796	-432.577956	326.559576	957.849591	-421.389532	365.147033	861.079485	-430.034147	416.967263	766.681432	-398.999926	414.582170	759.240421	-280.050363	99.959529	582.116916	-372.206412	25.186313	609.341469	-323.617453	139.952921	451.610646	-399.007846	334.317258	698.708900	-411.823171	271.558659	644.295093	-385.357799	185.692745	621.067969	-383.534325	286.475317	628.707126	-353.148575	210.192187	397.924909	-342.734945	-203.894238	864.435598	-211.588207	-50.940350	79.980111	-411.495952	-50.996885	79.683516	-14.603192	
1253	6.2650	563.531455	1237.019544	-84.504332	596.142534	1198.917654	-394.595007	583.604834	1315.086022	-244.663436	544.387027	1157.946051	-235.928332	491.155847	1017.655952	66.145530	659.599743	919.872728	-59.195938	482.416785	983.225738	-535.008999	656.467990	921.795009	-411.545577	22.087984	1136.147939	-232.445351	177.040956	1096.964393	-404.353387	169.915244	1112.669800	-74.165744	191.417522	1050.531779	-359.977752	201.345646	1072.299791	-107.974435	55.915713	1175.166285	-211.698610	55.439743	1171.480967	-270.419495	127.218255	1020.725974	-42.472250	153.870729	1046.014276	-430.739827	190.380703	891.967145	-18.673245	241.390797	816.401621	-22.965957	246.370041	730.197483	-34.107919	273.180389	830.115719	-38.508806	267.417077	623.879396	-44.641245	254.323552	596.397310	-152.991242	244.307760	504.836582	-17.432277	249.785819	419.188229	-37.881561	214.786323	339.827773	-40.594583	271.602353	420.005894	-71.681775	194.558957	258.520575	-46.341829	129.441647	228.941334	-92.477125	405.441140	202.300034	-97.224521	309.408570	184.488643	-24.801587	223.578810	959.970149	-436.891571	306.924237	934.411186	-432.723063	326.370314	964.588146	-421.532233	367.679321	868.826602	-430.181359	422.979545	776.246243	-398.525587	421.206253	769.314731	-279.293318	107.156268	589.051223	-371.999344	31.775804	615.264539	-323.252612	148.343346	458.790814	-398.900958	340.634790	707.839469	-411.644210	278.560824	652.743340	-385.249551	192.833897	628.910469	-383.410648	293.632796	637.085882	-353.151510	219.116814	405.998702	-342.810807	-203.899903	864.502065	-211.543834	-50.954940	80.036515	-411.501454	-51.007316	79.713380	-14.589380	
